<?xml version="1.0" encoding="utf-8"?>
<!-- Generator: Adobe Illustrator 20.1.0, SVG Export Plug-In . SVG Version: 6.00 Build 0)  -->
<svg version="1.1" id="Layer_1" xmlns="http://www.w3.org/2000/svg" xmlns:xlink="http://www.w3.org/1999/xlink" x="0px" y="0px"
	 viewBox="0 0 100 125" style="enable-background:new 0 0 100 125;" xml:space="preserve">
<style type="text/css">
	.st0{fill:#86BACF;}
	.st1{fill:#EF5A49;}
</style>
<title>vote collection final</title>
<path class="st0" d="M73.3,18.5l-17.7-6.4c-0.5-0.2-1.1,0.1-1.3,0.6l-3.6,9.8L44.6,5.7c-0.2-0.5-0.8-0.8-1.3-0.6l-17.7,6.4
	c-0.5,0.2-0.8,0.8-0.6,1.3l9.7,26.6c0.2,0.5,0.8,0.8,1.3,0.6l9.7-3.5l-1,2.8c-0.2,0.5,0.1,1.1,0.6,1.3L63,46.9
	c0.5,0.2,1.1-0.1,1.3-0.6l9.7-26.6C74.1,19.3,73.9,18.7,73.3,18.5C73.3,18.5,73.3,18.5,73.3,18.5z M36.3,37.7l-9-24.7l15.8-5.7
	l6.6,18.1L46.6,34L36.3,37.7z M62.7,44.7L46.9,39l9-24.7L71.7,20L62.7,44.7z"/>
<path class="st1" d="M37.5,17.9l-1.7-0.8l0.8-1.7c0.3-0.5,0.1-1.1-0.4-1.4c-0.5-0.3-1.1-0.1-1.4,0.4c0,0,0,0.1-0.1,0.1l-0.8,1.7
	l-1.7-0.8c-0.5-0.2-1.1,0.1-1.3,0.6c-0.2,0.5,0,1,0.5,1.2l1.7,0.8l-0.8,1.7c-0.3,0.5-0.1,1.1,0.4,1.4c0.5,0.3,1.1,0.1,1.4-0.4
	c0,0,0-0.1,0.1-0.1l0.7-1.7l1.7,0.8c0.5,0.2,1.1,0,1.3-0.5C38.2,18.7,38,18.1,37.5,17.9z"/>
<path class="st1" d="M39,16.9c-0.6,0-1-0.5-1-1c0-0.4,0.3-0.8,0.7-0.9l3.3-1.2c0.5-0.2,1.1,0.1,1.3,0.6c0.2,0.5-0.1,1-0.6,1.2
	l-3.3,1.2C39.3,16.9,39.1,16.9,39,16.9z"/>
<path class="st1" d="M41.1,27.8L39.5,27l0.8-1.7c0.2-0.5,0-1.1-0.5-1.3c-0.5-0.2-1.1,0-1.3,0.5l-0.8,1.7L36,25.4
	c-0.5-0.2-1.1,0-1.3,0.5c-0.2,0.5,0,1.1,0.5,1.3c0,0,0,0,0,0l1.7,0.8l-0.8,1.7c-0.2,0.5,0,1.1,0.5,1.3c0.5,0.2,1.1,0,1.3-0.5
	l0.8-1.7l1.7,0.8c0.5,0.2,1.1,0,1.3-0.5C41.9,28.6,41.7,28,41.1,27.8L41.1,27.8z"/>
<path class="st1" d="M42.7,26.8c-0.6,0-1-0.4-1-1c0-0.4,0.3-0.8,0.7-0.9l3.3-1.2c0.5-0.2,1.1,0.1,1.3,0.6c0.2,0.5-0.1,1-0.6,1.2
	L43,26.8C42.9,26.8,42.8,26.8,42.7,26.8z"/>
<path class="st1" d="M74.6,50c-0.2-0.9-1-1.4-1.9-1.4H25.9c-0.9,0-1.7,0.6-1.9,1.4l-4.7,16v28c0,0.6,0.4,1,1,1h58c0.6,0,1-0.4,1-1
	V66l0,0L74.6,50z M65.3,58.5h-32c-0.8,0-1.5-0.7-1.5-1.5s0.7-1.5,1.5-1.5h32c0.8,0,1.5,0.7,1.5,1.5S66.1,58.5,65.3,58.5z"/>
<path class="st0" d="M62,20.8c-0.2-0.5-0.8-0.7-1.3-0.5L59,21.1l-0.8-1.7C58,19,57.4,18.8,56.9,19c-0.4,0.2-0.6,0.8-0.5,1.2l0.8,1.7
	l-1.7,0.8C55,22.9,54.8,23.5,55,24c0.2,0.5,0.8,0.8,1.3,0.6c0,0,0.1,0,0.1-0.1l1.7-0.8l0.8,1.7c0.3,0.5,0.9,0.7,1.4,0.4
	c0.4-0.2,0.6-0.8,0.5-1.2l-0.8-1.7l1.7-0.8C62,21.9,62.2,21.3,62,20.8C62,20.8,62,20.8,62,20.8z"/>
<path class="st0" d="M66.3,26.3c-0.1,0-0.2,0-0.3-0.1L62.7,25c-0.5-0.2-0.8-0.7-0.6-1.3c0.2-0.5,0.7-0.8,1.3-0.6c0,0,0,0,0.1,0
	l3.3,1.2c0.5,0.2,0.8,0.8,0.6,1.3C67.1,26,66.8,26.3,66.3,26.3z"/>
<path class="st0" d="M58.4,30.7c-0.2-0.5-0.8-0.7-1.3-0.5L55.4,31l-0.8-1.7c-0.2-0.5-0.8-0.7-1.3-0.5s-0.7,0.8-0.5,1.3c0,0,0,0,0,0
	l0.8,1.7L52,32.6c-0.5,0.2-0.7,0.8-0.5,1.3c0.2,0.5,0.8,0.7,1.3,0.5l1.7-0.8l0.8,1.7c0.1,0.5,0.6,0.9,1.2,0.8s0.9-0.6,0.8-1.2
	c0-0.2-0.1-0.4-0.3-0.5l-0.8-1.7l1.7-0.8C58.4,31.8,58.6,31.2,58.4,30.7z"/>
<path class="st0" d="M62.7,36.2c-0.1,0-0.2,0-0.3-0.1l-3.3-1.2c-0.5-0.2-0.8-0.8-0.6-1.3c0.2-0.5,0.8-0.8,1.3-0.6l0,0l3.3,1.2
	c0.5,0.2,0.8,0.7,0.7,1.2C63.6,35.9,63.2,36.2,62.7,36.2z"/>
</svg>
