<?xml version="1.0" encoding="utf-8"?>
<!-- Generator: Adobe Illustrator 20.1.0, SVG Export Plug-In . SVG Version: 6.00 Build 0)  -->
<svg version="1.1" id="Layer_1" xmlns="http://www.w3.org/2000/svg" xmlns:xlink="http://www.w3.org/1999/xlink" x="0px" y="0px"
	 viewBox="0 0 177 250" style="enable-background:new 0 0 177 250;" xml:space="preserve">
<g>
	<path d="M50.6,108.6c5-7.2,14.5-11.1,22.9-7.2c4.5-6.7,12.3-8.9,19.5-7.2c0.6-10.6,0.6-20.6,1.1-31.2c0.6-11.7,0.6-22.9,2.2-33.4
		c0.6-7.2,1.7-20.6,10-22.3c22.9-6.1,24,20.6,24,36.2c0,20.1,0,41.3,0,61.3c0,4.5,0,14.5,0,24.5l3.3,2.2c9.5,5,15.6,15.6,17.3,26.2
		c2.8,26.2-29,40.1-31.2,72.5v6.7H37.2V229c1.1-34.6-26.8-88.1-1.1-117.1l0.6-0.6l0.6-0.6C41.1,108,46.1,107.5,50.6,108.6z M45,229
		l67.5,0.6c2.2-36.8,33.4-47.9,30.1-71.4c-1.1-8.9-6.1-17.3-12.8-20.6c-0.6,12.8,0.6,30.7-2.8,30.7c-5.6,0-3.9-110.9-4.5-124.9
		c0-13.4,0.6-32.9-14.5-29c-6.1,1.7-7.2,71.9-7.8,92.5c-7.2-7.2-20.6-9.5-24,6.1c-6.7-11.1-22.3-4.5-21.2,7.8
		c-2.2-3.3-8.4-7.2-13.4-3.3C19.9,142.6,46.1,194.4,45,229z"/>
</g>
</svg>
