<?xml version="1.0" encoding="utf-8"?>
<!-- Generator: Adobe Illustrator 20.1.0, SVG Export Plug-In . SVG Version: 6.00 Build 0)  -->
<svg version="1.1" id="Layer_1" xmlns="http://www.w3.org/2000/svg" xmlns:xlink="http://www.w3.org/1999/xlink" x="0px" y="0px"
	 viewBox="0 0 100 100" style="enable-background:new 0 0 100 100;" xml:space="preserve">
<style type="text/css">
	.st0{fill:none;stroke:#FFFFFF;stroke-miterlimit:10;}
	.st1{fill:#11680F;}
</style>
<g>
	<line x1="-7" y1="0" x2="-7" y2="99"/>
	<path class="st0" d="M18-14.5"/>
	<path class="st0" d="M8-14.5"/>
</g>
<g>
	<path class="st1" d="M96.9,6.9c-1.7-1.5-4.4-1.5-6.1,0l-59,54.6L7,52.3c-1.9-0.7-4.1,0-5.2,1.6c-1.2,1.7-1.1,3.9,0.3,5.5l27.3,32
		c0.9,1,2.1,1.6,3.4,1.6l0.5,0c1.2-0.1,2.3-0.8,3.1-1.7l61.1-78.4C98.8,11.1,98.6,8.4,96.9,6.9z M32.7,91.5L32.7,91.5L32.7,91.5
		L32.7,91.5z"/>
</g>
</svg>
