<?xml version="1.0" encoding="utf-8"?>
<!-- Generator: Adobe Illustrator 20.1.0, SVG Export Plug-In . SVG Version: 6.00 Build 0)  -->
<svg version="1.1" id="Layer_1" xmlns="http://www.w3.org/2000/svg" xmlns:xlink="http://www.w3.org/1999/xlink" x="0px" y="0px"
	 viewBox="0 0 100 125" style="enable-background:new 0 0 100 125;" xml:space="preserve">
<style type="text/css">
	.st0{fill:#990D14;}
</style>
<g>
	<path class="st0" d="M32.4,50.6L10,27.4C5,22.4,5,15,10,10s12.4-5,17.4,0l22.4,22.4L72.2,10c5-5,13.3-5,18.2,0c5,5,5,13.3,0,18.2
		L68,50.6L90.4,73c5,5,5,12.4,0,17.4s-12.4,5-17.4,0L50.6,68L28.2,90.4c-5,5-13.3,5-18.2,0c-5-5-5-13.3,0-18.2L32.4,50.6z"/>
</g>
</svg>
