<?xml version="1.0" encoding="utf-8"?>
<!-- Generator: Adobe Illustrator 20.1.0, SVG Export Plug-In . SVG Version: 6.00 Build 0)  -->
<svg version="1.1" id="Layer_1" xmlns="http://www.w3.org/2000/svg" xmlns:xlink="http://www.w3.org/1999/xlink" x="0px" y="0px"
	 viewBox="0 0 100 125" style="enable-background:new 0 0 100 125;" xml:space="preserve">
<style type="text/css">
	.st0{fill:#86BACF;}
	.st1{fill:#EF5A49;}
</style>
<circle class="st0" cx="40.2" cy="43.5" r="5.5"/>
<path class="st1" d="M66.5,53.7h-9.6c-1.7,0-3.1,1.2-3.1,2.9L52,75.9c0,1.7,1.4,3.1,3.1,3.1h1l2.4,16.2c0,1,0.8,1.8,1.9,1.8H63
	c1,0,1.9-0.7,1.9-1.8l2.4-16.2h1c1.7,0,3.1-1.4,3.1-3.1l-1.7-19.3C69.6,54.9,68.2,53.7,66.5,53.7z"/>
<circle class="st1" cx="61.7" cy="46.5" r="5.2"/>
<path class="st0" d="M46.3,51.3c-0.3-0.1-0.7-0.2-1-0.2H35.1c-1.8,0-3.3,1.3-3.3,3.1L30,66.8c0,1.8,1.5,3.3,3.3,3.3h1l2.5,25
	c0,1.1,0.9,1.9,2,1.9h2.9c1.1,0,2-0.8,2-1.9l2.5-25h1c1.8,0,3.3-1.5,3.3-3.3l-0.2-1.4V36v-4.9c3.7,0.6,6.7,2.4,8,4.9h1.5
	c1.6-3,5.6-5.1,10.3-5.1c4.7,0,8.7,2.1,10.3,5.1h0.3C80.5,19,67.4,5,50.6,3.6C50.6,2.2,49.4,1,48,1c-1.4,0-2.6,1.1-2.6,2.6
	c-2.5,0.2-4.9,0.7-7.3,1.4c-0.4,0.1-0.8,0.3-1.1,0.4c-0.7,0.3-1.5,0.6-2.2,0.9C23.4,11.4,15.4,22.8,15.4,36h0.3
	c1.6-3,5.6-5.1,10.3-5.1S34.7,33,36.3,36h1.5c1.4-2.6,4.7-4.6,8.6-5v5L46.3,51.3"/>
</svg>
